<?xml version="1.0" standalone="no"?>
<!DOCTYPE svg PUBLIC "-//W3C//DTD SVG 1.1//EN" "http://www.w3.org/Graphics/SVG/1.1/DTD/svg11.dtd">
<svg xmlns="http://www.w3.org/2000/svg" width="2000" height="2000" viewBox="0 0 2000 2000"><path fill-rule="evenodd" d="M845.323 753.6c-.445 1.159 11.348 13.565 42.777 45l43.391 43.4h618.022l28.843 28.856 28.844 28.857-1.799 3.393c-1.089 2.056-1.807 5.562-1.821 8.894-.057 14.144 13.663 23.616 26.891 18.564 15.456-5.903 16.72-28.303 2.029-35.975-4.912-2.565-13.594-2.714-18.141-.31l-3.141 1.66-29.859-29.977-29.859-29.977-309.504.007-309.505.008-41.991-42c-23.095-23.1-42.57-42-43.277-42s-1.562.72-1.9 1.6m-361 145.722L471.146 910.5l-.073 16.585L471 943.67l13.25 11.151 13.25 11.151 39.612.014 39.612.014 4.634 3.75c4.527 3.664 4.634 3.881 4.638 9.433.004 5.496-.139 5.801-4.349 9.25L577.294 992H474v27h117.838l13.581-11.558L619 995.884v-33.768l-13.581-11.558L591.838 939H512.36l-4.18-3.578c-3.841-3.288-4.18-3.971-4.18-8.433 0-4.517.303-5.104 4.353-8.422l4.353-3.567H611v-27l-56.75.072-56.75.071zM649 953.5v65.5h144v-28H682v-25h83v-25h-83v-25h109v-28H649zm182.616-50.75-17.61 14.75v72l17.61 14.75 17.611 14.75H955v-28h-91.032l-8.484-7.187-8.484-7.186v-46.254l8.484-7.186 8.484-7.187H955v-28H849.227zm161.634-.183L976 917.055v72.896l17.386 14.525 17.386 14.524h93.287l17.47-14.595L1139 989.81v-72.62l-17.471-14.595-17.47-14.595-46.78.04-46.779.04zM1174 953.5v65.5h32v-96l2.25.027c1.928.023 5.168 5.457 22.658 38L1251.315 999l16.593-.019 16.592-.018 20.423-37.982c17.875-33.241 20.714-37.981 22.75-37.981H1330v96h32V887.966l-25.585.267-25.586.267-19.875 37c-18.343 34.147-20.091 37.023-22.665 37.292-2.709.284-3.365-.788-22.789-37.212l-20-37.505-25.75-.038L1174 888zm227 0v65.5h33v-36l41.75-.042 41.75-.042 15.25-12.661 15.25-12.66v-44.19l-15.25-12.66-15.25-12.661-58.25-.042L1401 888zm-383.695-30.729-8.196 6.729v48l8.196 6.729 8.195 6.729 31.878.021 31.878.021 8.372-7.05 8.372-7.05v-46.8l-8.372-7.05-8.372-7.05-31.878.021-31.878.021zM1434 935.5V955h68.147l6.413-5.25 6.413-5.25v-18l-6.413-5.25-6.413-5.25H1434zM368.459 1069.88c-14.613 6.637-15.192 28.097-.959 35.531 4.892 2.555 13.629 2.723 18 .347l3-1.63 30.038 29.936L448.576 1164h618.933l41.991 42c23.095 23.1 42.57 42 43.277 42 5.164 0 1.227-4.487-40.877-46.6l-43.391-43.4H450.487l-28.843-28.856-28.844-28.857 1.799-3.393c1.095-2.066 1.812-5.588 1.833-8.999.09-14.526-14.695-24.047-27.973-18.015m830.495.206c-1.463 2.734-.33 3.811 1.45 1.376 1.355-1.853 1.458-1.851 5.06.073 3.607 1.927 3.704 1.928 5.075.068.768-1.044 1.143-2.308.833-2.81s-1.162-.098-1.894.897c-1.271 1.73-1.461 1.733-4.308.06-3.845-2.259-4.856-2.205-6.216.336m-742.431 7.479c-3.714 1.936-4.488 3.137-4.508 6.994-.023 4.561 1.77 6.224 9.376 8.699 4.268 1.388 7.444 3.081 8.342 4.446 1.326 2.015 1.232 2.422-1.096 4.75-2.987 2.987-7.761 3.357-13.323 1.033-3.914-1.635-4.883-1.412-3.989.917.808 2.105 8.337 3.905 13.133 3.14 7.887-1.259 11.032-5.762 8.05-11.529-1.21-2.34-2.746-3.31-7.271-4.594-7.525-2.134-10.237-3.932-10.237-6.789 0-3.906 3.192-5.894 8.69-5.41 2.645.233 5.598.776 6.56 1.208 1.222.547 1.75.347 1.75-.665 0-1.528-6.033-3.769-10.116-3.759-1.311.004-3.724.705-5.361 1.559M491 1092v16h11c9.111 0 11-.258 11-1.5 0-1.228-1.722-1.5-9.5-1.5H494v-12h8c6.444 0 8-.292 8-1.5s-1.556-1.5-8-1.5h-8v-11h9c7.333 0 9-.278 9-1.5 0-1.238-1.833-1.5-10.5-1.5H491zm40 0c0 13.556.229 16 1.5 16 1.254 0 1.503-2.091 1.516-12.75l.017-12.75 6.08 10.75c3.345 5.912 6.453 10.75 6.908 10.75s3.449-4.735 6.653-10.523l5.826-10.523.28 12.523c.228 10.225.55 12.523 1.75 12.523 1.232 0 1.47-2.589 1.47-16 0-12.136-.302-15.999-1.25-15.994-.687.003-4.175 5.175-7.75 11.494s-6.725 11.489-7 11.489-3.425-5.17-7-11.489-7.062-11.491-7.75-11.494c-.948-.005-1.25 3.858-1.25 15.994m61.087-14.163c-2.015 3.765-13.087 28.618-13.087 29.376 0 .433.607.787 1.348.787s2.16-1.8 3.152-4l1.804-4h17.857l1.571 4c1.038 2.643 2.194 4 3.407 4 1.695 0 1.638-.442-.744-5.75a5659 5659 0 0 1-7.131-16c-4.508-10.152-6.274-11.969-8.177-8.413M625 1092c0 15.671.044 16 2.135 16 2.092 0 2.125-.253 1.653-12.5-.264-6.875-.197-12.5.15-12.5s4.89 5.624 10.096 12.498 10.029 12.499 10.716 12.5c.948.002 1.25-3.864 1.25-15.998 0-13.411-.238-16-1.47-16-1.201 0-1.521 2.315-1.75 12.66l-.28 12.659-9.82-12.659c-5.401-6.963-10.463-12.66-11.25-12.66-1.18 0-1.43 2.791-1.43 16m54.099-11.824c-1.042 2.378-4.19 9.436-6.996 15.685-2.807 6.248-5.103 11.536-5.103 11.75s.711.389 1.58.389c.916 0 2.242-1.683 3.152-4l1.571-4h17.656l2.041 4c1.122 2.2 2.707 4 3.52 4s1.48-.151 1.48-.337c0-.185-3.136-7.272-6.968-15.75-4.031-8.916-7.616-15.55-8.504-15.737-.999-.211-2.197 1.187-3.429 4M735 1091.881V1108h8.032c9.144 0 13.15-1.353 17.404-5.876 2.386-2.536 3.012-4.201 3.339-8.873.335-4.798.014-6.316-1.936-9.159-4.324-6.301-6.857-7.457-17.351-7.916l-9.488-.415zm50.525-3.173c-9.002 19.853-8.797 19.292-7.059 19.292.821 0 2.412-1.8 3.534-4l2.041-4h17.742l1.6 4c.881 2.2 2.279 4 3.109 4 .829 0 1.487-.338 1.462-.75-.162-2.628-13.888-30.802-15.123-31.042-1.059-.205-3.228 3.506-7.306 12.5m67.975-11.555c-9.33 3.425-12.969 13.115-8.44 22.471 2.313 4.777 8.237 8.376 13.788 8.376 5.459 0 12.642-3.843 10.74-5.746-.337-.337-2.198.143-4.134 1.067-6.532 3.114-13.95 1.194-17.428-4.511-6.878-11.28 5.623-24.413 17.395-18.275 3.903 2.036 5.749.278 2.171-2.066-3.257-2.135-10.116-2.775-14.092-1.316m42 .053c-9.278 3.242-12.972 13.055-8.44 22.418 3.753 7.753 13.445 10.464 21.904 6.126 5.985-3.069 8.273-7.483 7.782-15.011-.321-4.936-.861-6.262-3.766-9.26-4.835-4.988-11.071-6.513-17.48-4.273M935 1092c0 13.556.229 16 1.5 16 1.254 0 1.503-2.091 1.516-12.75l.017-12.75 6.08 10.75c3.345 5.912 6.453 10.75 6.908 10.75s3.449-4.735 6.653-10.523l5.826-10.523.28 12.523c.228 10.225.55 12.523 1.75 12.523 1.232 0 1.47-2.589 1.47-16 0-12.136-.302-15.999-1.25-15.994-.687.003-4.175 5.175-7.75 11.494s-6.725 11.489-7 11.489-3.425-5.17-7-11.489-7.062-11.491-7.75-11.494c-.948-.005-1.25 3.858-1.25 15.994m52-.122c0 15.455.083 16.122 2 16.122 1.733 0 2-.667 2-5v-5h5.766c10.71 0 16.496-5.846 14.16-14.306-1.463-5.297-4.934-7.015-15.176-7.513l-8.75-.426zm42-5.346c0 15.208 2.674 20.226 11.294 21.198 8.091.912 13.407-3.617 13.769-11.73.407-9.128-.088-20-.91-20-.466 0-1.128 5.234-1.47 11.63-.712 13.284-1.826 15.931-7.122 16.924-9.237 1.733-12.557-3.106-12.559-18.304-.002-8.444-.266-10.25-1.502-10.25-1.238 0-1.5 1.837-1.5 10.532m41-9.032c0 1.152 1.278 1.5 5.5 1.5h5.5v14.5c0 12.222.236 14.5 1.5 14.5s1.5-2.278 1.5-14.5V1079h5.5c4.222 0 5.5-.348 5.5-1.5 0-1.253-2.056-1.5-12.5-1.5s-12.5.247-12.5 1.5m45.738 6.75a1188 1188 0 0 1-7.142 16c-3.186 6.965-3.356 7.75-1.679 7.75q1.866 0 3.466-4l1.601-4h17.712l1.804 4c1.106 2.454 2.48 4 3.552 4 1.439 0 .484-2.826-5.402-15.973-4.834-10.8-7.663-15.982-8.732-16-1.035-.018-2.828 2.828-5.18 8.223m45.204-7.302c-7.342 2.228-11.173 7.394-11.173 15.067 0 6.77 2.596 10.909 8.773 13.985 3.402 1.694 4.914 3.022 4.69 4.121-.199.983.519 1.842 1.825 2.184 2.926.765 1.912 3.184-1.358 3.241-3.633.063-4.457 1.226-1.41 1.99 5.583 1.402 8.961-3.763 4.461-6.821-2.195-1.492-2.201-1.546-.25-2.19 5.82-1.922 10.711-4.714 9.82-5.605-.621-.621-2.353-.386-4.857.66-10.275 4.293-19.702-2.892-18.474-14.08.912-8.301 11.154-13.063 19.176-8.915 2.153 1.114 3.379 1.271 4.122.528s-.258-1.653-3.365-3.063c-4.644-2.107-7.732-2.391-11.98-1.102m38.796 7.302a1188 1188 0 0 1-7.142 16c-3.186 6.965-3.356 7.75-1.679 7.75q1.866 0 3.466-4l1.601-4h17.712l1.804 4c1.106 2.454 2.48 4 3.552 4 1.439 0 .484-2.826-5.402-15.973-4.834-10.8-7.663-15.982-8.732-16-1.035-.018-2.828 2.828-5.18 8.223m45.204-7.302c-4.584 1.391-6.726 2.966-8.968 6.594-4.335 7.015-2.225 17.504 4.325 21.499 6.947 4.238 14.869 3.709 20.259-1.351 3.715-3.489 6.193-10.626 5.119-14.749-2.409-9.253-11.822-14.697-20.735-11.993m60.058 14.933V1108h8.032c9.144 0 13.15-1.353 17.404-5.876 2.386-2.536 3.012-4.201 3.339-8.873.335-4.798.014-6.316-1.936-9.159-4.324-6.301-6.857-7.457-17.351-7.916l-9.488-.415zm50.525-3.173c-9.002 19.853-8.797 19.292-7.059 19.292.821 0 2.412-1.8 3.534-4l2.041-4h17.742l1.6 4c.881 2.2 2.279 4 3.109 4 .829 0 1.487-.338 1.462-.75-.162-2.628-13.888-30.802-15.123-31.042-1.059-.205-3.228 3.506-7.306 12.5m59.499-3.458c.03 11.529 1.114 16.343 4.429 19.657 2.204 2.204 3.477 2.593 8.489 2.593 10.254 0 13.043-4.646 13.052-21.75.005-8.002-.263-9.75-1.494-9.75-1.236 0-1.5 1.806-1.502 10.25-.001 11.817-1.648 16.53-6.302 18.042-3.985 1.294-9.456.018-11.101-2.589-1.543-2.444-2.534-9.944-2.571-19.453-.019-4.878-.353-6.25-1.524-6.25-1.227 0-1.496 1.684-1.476 9.25M1461 1092c0 13.556.229 16 1.5 16 1.179 0 1.5-1.389 1.5-6.5v-6.5h8c6.444 0 8-.292 8-1.5s-1.556-1.5-8-1.5h-8v-13h9c7.333 0 9-.278 9-1.5 0-1.238-1.833-1.5-10.5-1.5H1461zm38 0c0 13.556.229 16 1.5 16 1.133 0 1.5-1.222 1.5-5v-5h5.532c9.922 0 15.468-3.944 15.468-11 0-7.417-5.526-11-16.968-11H1499zm47.738-7.75a1188 1188 0 0 1-7.142 16c-3.143 6.869-3.338 7.75-1.722 7.75 1.198 0 2.361-1.371 3.394-4l1.571-4h17.857l1.804 4c1.106 2.454 2.48 4 3.552 4 1.439 0 .484-2.826-5.402-15.973-4.834-10.8-7.663-15.982-8.732-16-1.035-.018-2.828 2.828-5.18 8.223M738 1092v13.212l8.087-.367c7.922-.36 8.16-.446 11.615-4.217 3.316-3.619 3.5-4.175 3.075-9.307-.371-4.47-1.028-6.033-3.627-8.633-2.948-2.947-3.746-3.2-11.162-3.537l-7.988-.363zm156.299-11.1c-8.732 5.486-8.032 18.807 1.191 22.66 9.485 3.963 18.51-1.746 18.51-11.71 0-4.13-.509-5.435-3.312-8.493-2.764-3.017-4.128-3.685-8.25-4.041-3.751-.325-5.708.056-8.139 1.584m95.71.85c.004 1.513.292 5.112.639 8l.631 5.25h5.725c7.598 0 10.996-2.472 10.996-8 0-5.694-3.354-8-11.635-8-6.279 0-6.365.037-6.356 2.75m253.189-1.077c-4.143 2.042-6.198 5.934-6.198 11.743 0 11.242 13.772 16.658 21.842 8.588 10.575-10.575-2.077-27.017-15.644-20.331M1308 1092v13.212l8.087-.367c7.922-.36 8.16-.446 11.615-4.217 3.316-3.619 3.5-4.175 3.075-9.307-.371-4.47-1.028-6.033-3.627-8.633-2.948-2.947-3.746-3.2-11.162-3.537l-7.988-.363zm194-5v8h6.545c5.617 0 6.894-.348 9-2.455 3.441-3.441 3.359-8.689-.18-11.472-2.039-1.604-4.075-2.073-9-2.073H1502zm-908.815-5.336c-1.028 1.933-6.185 14.446-6.185 15.008 0 .181 3.15.328 7 .328s7-.403 7-.895c0-.856-5.895-15.244-6.531-15.941-.169-.184-.746.491-1.284 1.5m87.329 1.885a533 533 0 0 0-3.583 8.701l-1.902 4.75h14.858l-2.867-6.952c-4.57-11.082-4.56-11.072-6.506-6.499m108.298 4.685-3.49 8.266 6.96.296c3.827.163 7.13.126 7.338-.083.386-.386-5.861-15.287-6.803-16.23-.283-.283-2.085 3.205-4.005 7.751m328.385-.415c-1.758 4.3-3.197 8.125-3.197 8.5 0 .374 3.18.681 7.067.681 6.822 0 7.044-.076 6.371-2.195-.979-3.086-6.282-14.805-6.699-14.805-.19 0-1.784 3.518-3.542 7.819m84 0c-1.758 4.3-3.197 8.125-3.197 8.5 0 .374 3.18.681 7.067.681 6.822 0 7.044-.076 6.371-2.195-.979-3.086-6.282-14.805-6.699-14.805-.19 0-1.784 3.518-3.542 7.819m157.615.415-3.49 8.266 6.96.296c3.827.163 7.13.126 7.338-.083.386-.386-5.861-15.287-6.803-16.23-.283-.283-2.085 3.205-4.005 7.751m189.385-.415c-1.758 4.3-3.197 8.125-3.197 8.5 0 .374 3.18.681 7.067.681 6.822 0 7.044-.076 6.371-2.195-.979-3.086-6.282-14.805-6.699-14.805-.19 0-1.784 3.518-3.542 7.819"/></svg>