<svg width="63" height="60" viewBox="0 0 63 60" fill="none" xmlns="http://www.w3.org/2000/svg">
<mask id="mask0_1_381" style="mask-type:luminance" maskUnits="userSpaceOnUse" x="0" y="0" width="63" height="60">
<path d="M0 0H62.974V59.9792H0V0Z" fill="white"/>
</mask>
<g mask="url(#mask0_1_381)">
<path d="M59.4583 26.9219C58.125 26.9219 56.9844 27.7604 56.5365 28.9323H45.8073V23.1198H51.1719C51.6198 24.2969 52.7604 25.1354 54.0938 25.1354C55.8177 25.1354 57.224 23.7292 57.224 22.0052C57.224 20.2813 55.8177 18.875 54.0938 18.875C52.7604 18.875 51.6198 19.7135 51.1719 20.8854H45.8073C45.7708 17.2292 42.7865 14.2708 39.1198 14.2656V12.1875C40.2969 11.7396 41.1302 10.599 41.1302 9.26563C41.1302 7.54167 39.7292 6.14063 38.0052 6.14063C36.276 6.14063 34.875 7.54167 34.875 9.26563C34.875 10.599 35.7135 11.7396 36.8854 12.1875V14.2656H31.0781V6.04688C32.25 5.59896 33.0885 4.45833 33.0885 3.125C33.0885 1.40104 31.6823 0 29.9583 0C28.2344 0 26.8281 1.40104 26.8281 3.125C26.8281 4.45833 27.6667 5.59896 28.8385 6.04688V14.2656H23.0313V10.849C24.2031 10.3958 25.0417 9.25521 25.0417 7.92708C25.0417 6.20313 23.6406 4.79688 21.9115 4.79688C20.1875 4.79688 18.7865 6.20313 18.7865 7.92708C18.7865 9.25521 19.6198 10.3958 20.7969 10.849V14.2656H20.3385C16.6771 14.2656 13.6875 17.2292 13.651 20.8854H11.4271C10.974 19.7135 9.83854 18.875 8.50521 18.875C6.78125 18.875 5.375 20.2813 5.375 22.0052C5.375 23.7292 6.78125 25.1354 8.50521 25.1354C9.83854 25.1354 10.974 24.2969 11.4271 23.1198H13.651V28.9323H6.0625C5.61458 27.7604 4.47396 26.9219 3.14063 26.9219C1.41667 26.9219 0.015625 28.3229 0.015625 30.0521C0.015625 31.776 1.41667 33.1771 3.14063 33.1771C4.47396 33.1771 5.61458 32.3438 6.0625 31.1667H13.651V36.9792H8.74479C8.29688 35.8021 7.15625 34.9688 5.82292 34.9688C4.09896 34.9688 2.69271 36.3698 2.69271 38.0938C2.69271 39.8177 4.09896 41.224 5.82292 41.224C7.15625 41.224 8.29688 40.3854 8.74479 39.2135H13.6823C14.0104 42.599 16.8698 45.25 20.3385 45.25H20.7969V49.9219C19.6198 50.3698 18.7865 51.5104 18.7865 52.8438C18.7865 54.5677 20.1875 55.974 21.9115 55.974C23.6406 55.974 25.0417 54.5677 25.0417 52.8438C25.0417 51.5104 24.2031 50.3698 23.0313 49.9219V45.25H28.8385V53.9427C27.6667 54.3958 26.8281 55.5365 26.8281 56.8646C26.8281 58.5885 28.2344 59.9948 29.9583 59.9948C31.6823 59.9948 33.0885 58.5885 33.0885 56.8646C33.0885 55.5313 32.25 54.3958 31.0781 53.9427V45.25H36.8854V51.2604C35.7135 51.7135 34.875 52.8542 34.875 54.1823C34.875 55.9115 36.276 57.3125 38.0052 57.3125C39.7292 57.3125 41.1302 55.9115 41.1302 54.1823C41.1302 52.8542 40.2969 51.7135 39.1198 51.2604V45.25C42.5885 45.25 45.4479 42.5938 45.776 39.2135H49.8333C50.2813 40.3854 51.4219 41.224 52.75 41.224C54.4792 41.224 55.8802 39.8177 55.8802 38.0938C55.8802 36.3698 54.4792 34.9635 52.75 34.9635C51.4219 34.9635 50.2813 35.8021 49.8333 36.9792H45.8073V31.1667H56.5365C56.9844 32.3438 58.125 33.1771 59.4583 33.1771C61.1823 33.1771 62.5833 31.776 62.5833 30.0469C62.5833 28.3229 61.1823 26.9219 59.4583 26.9219ZM54.0938 21.1094C54.5885 21.1094 54.9896 21.5104 54.9896 22.0052C54.9896 22.5 54.5885 22.901 54.0938 22.901C53.599 22.901 53.1979 22.5 53.1979 22.0052C53.1979 21.5104 53.599 21.1094 54.0938 21.1094ZM29.9583 2.23438C30.4531 2.23438 30.8542 2.63542 30.8542 3.125C30.8542 3.61979 30.4531 4.02083 29.9583 4.02083C29.4635 4.02083 29.0625 3.61979 29.0625 3.125C29.0625 2.63542 29.4635 2.23438 29.9583 2.23438ZM21.9115 7.03125C22.4063 7.03125 22.8073 7.43229 22.8073 7.92708C22.8073 8.42188 22.4063 8.81771 21.9115 8.81771C21.4219 8.81771 21.0208 8.42188 21.0208 7.92708C21.0208 7.43229 21.4219 7.03125 21.9115 7.03125ZM8.50521 22.901C8.01042 22.901 7.60938 22.5 7.60938 22.0052C7.60938 21.5104 8.01042 21.1094 8.50521 21.1094C9 21.1094 9.40104 21.5104 9.40104 22.0052C9.40104 22.5 9 22.901 8.50521 22.901ZM3.14063 30.9427C2.65104 30.9427 2.25 30.5417 2.25 30.0521C2.25 29.5573 2.65104 29.1563 3.14063 29.1563C3.63542 29.1563 4.03646 29.5573 4.03646 30.0521C4.03646 30.5417 3.63542 30.9427 3.14063 30.9427ZM5.82292 38.9896C5.32812 38.9896 4.93229 38.5885 4.93229 38.0938C4.93229 37.6042 5.32812 37.2031 5.82292 37.2031C6.31771 37.2031 6.71875 37.6042 6.71875 38.0938C6.71875 38.5885 6.31771 38.9896 5.82292 38.9896ZM21.9115 53.7396C21.4219 53.7396 21.0208 53.3385 21.0208 52.8438C21.0208 52.349 21.4219 51.9479 21.9115 51.9479C22.4063 51.9479 22.8073 52.349 22.8073 52.8438C22.8073 53.3385 22.4063 53.7396 21.9115 53.7396ZM29.9583 57.7604C29.4635 57.7604 29.0625 57.3594 29.0625 56.8646C29.0625 56.375 29.4635 55.974 29.9583 55.974C30.4531 55.974 30.8542 56.375 30.8542 56.8646C30.8542 57.3594 30.4531 57.7604 29.9583 57.7604ZM38.0052 8.375C38.4948 8.375 38.8958 8.77604 38.8958 9.26563C38.8958 9.76042 38.4948 10.1615 38.0052 10.1615C37.5104 10.1615 37.1094 9.76042 37.1094 9.26563C37.1094 8.77604 37.5104 8.375 38.0052 8.375ZM38.0052 55.0781C37.5104 55.0781 37.1094 54.6771 37.1094 54.1823C37.1094 53.6927 37.5104 53.2917 38.0052 53.2917C38.4948 53.2917 38.8958 53.6927 38.8958 54.1823C38.8958 54.6771 38.4948 55.0781 38.0052 55.0781ZM43.5729 38.5625C43.5729 41.0156 41.5729 43.0156 39.1198 43.0156H20.3385C17.8854 43.0156 15.8854 41.0156 15.8854 38.5625V20.9583C15.8854 18.5 17.8854 16.5 20.3385 16.5H39.1198C41.5729 16.5 43.5729 18.5 43.5729 20.9583V38.5625ZM52.75 37.2031C53.2448 37.2031 53.6458 37.6042 53.6458 38.0938C53.6458 38.5885 53.2448 38.9896 52.75 38.9896C52.2604 38.9896 51.8594 38.5885 51.8594 38.0938C51.8594 37.6042 52.2604 37.2031 52.75 37.2031ZM59.4583 30.9427C58.9635 30.9427 58.5625 30.5417 58.5625 30.0521C58.5625 29.5573 58.9635 29.1563 59.4583 29.1563C59.9479 29.1563 60.349 29.5573 60.349 30.0521C60.349 30.5417 59.9479 30.9427 59.4583 30.9427Z" fill="#32ABF7"/>
</g>
<path d="M24.3646 22.8386L19.2344 36.6771H22.599L23.4635 34.3906H28.724L29.5729 36.6771H32.9323L27.8021 22.8386H24.3646ZM24.4948 31.6042L26.0729 27.3125L27.6979 31.6042H24.4948Z" fill="#3AA3F4"/>
<path d="M34.9479 22.8386H38.2448V36.6771H34.9479V22.8386Z" fill="#3AA3F4"/>
</svg>
